{"title":"ex.on.the.beach.s01e06.1080i.hdtv.x264.lee","uid":10332919,"size":2921504538,"categoryP":"video","categoryS":"hd___tv_shows","magnet":"?xt=urn:btih:a1ef71b1ef0e25c49653f3ec715fc8e620c8696a&amp;dn=ex.on.the.beach.s01e06.1080i.hdtv.x264.lee&amp;tr=udp%3A%2F%2Ftracker.openbittorrent.com%3A80&amp;tr=udp%3A%2F%2Fopen.demonii.com%3A1337&amp;tr=udp%3A%2F%2Ftracker.coppersurfer.tk%3A6969&amp;tr=udp%3A%2F%2Fexodus.desync.com%3A6969","seeders":1,"leechers":2,"uploader":"W33DandSHANE","files":1,"time":1402433459,"description":"Ross tells Chloe that he wants to get back together with her. Jack also tries it on with Emily, and Farah gets possessive over Joss - who reveals his secret kiss with Talitha\n\nComplete name : ex.on.the.beach.s01e06.1080i.hdtv.x264-LEE.mkv\nFormat : Matroska\nFormat version : Version 4 / Version 2\nFile size : 2.72 GiB\nDuration : 43mn 19s\nOverall bit rate : 8 989 Kbps\n\n\nVideo\nID : 1\nFormat : AVC\nFormat/Info : Advanced Video Codec\nFormat profile : &lt;a class=&quot;__cf_email__&quot; href=&quot;/cdn-cgi/l/email-protection&quot; data-cfemail=&quot;105d71797e505c243e20&quot;&gt;[email&amp;#160;protected]&lt;/a&gt;&lt;script cf-hash='f9e31' type=&quot;text/javascript&quot;&gt;\n/* &lt;![CDATA[ */!function(){try{var t=&quot;currentScript&quot;in document?document.currentScript:function(){for(var t=document.getElementsByTagName(&quot;script&quot;),e=t.length;e--;)if(t[e].getAttribute(&quot;cf-hash&quot;))return t[e]}();if(t&amp;&amp;t.previousSibling){var e,r,n,i,c=t.previousSibling,a=c.getAttribute(&quot;data-cfemail&quot;);if(a){for(e=&quot;&quot;,r=parseInt(a.substr(0,2),16),n=2;a.length-n;n+=2)i=parseInt(a.substr(n,2),16)^r,e+=String.fromCharCode(i);e=document.createTextNode(e),c.parentNode.replaceChild(e,c)}}}catch(u){}}();/* ]]&gt; */&lt;/script&gt;\nFormat settings, CABAC : Yes\nFormat settings, ReFrames : 4 frames\nFormat settings, GOP : M=4, N=12\nCodec ID : V_MPEG4/ISO/AVC\nDuration : 43mn 19s\nBit rate : 8 427 Kbps\nWidth : 1 920 pixels\nHeight : 1 080 pixels\nDisplay aspect ratio : 16:9\nFrame rate mode : Constant\nFrame rate : 25.000 fps\nColor space : YUV\nChroma subsampling : 4:2:0\nBit depth : 8 bits\nScan type : Interlaced\nScan order : Top Field First\nBits/(Pixel*Frame) : 0.163\nStream size : 2.55 GiB (94%)\n\n\nAudio\nID : 2\nFormat : AC-3\nFormat/Info : Audio Coding 3\nMode extension : CM (complete main)\nFormat settings, Endianness : Big\nCodec ID : A_AC3\nDuration : 43mn 19s\nBit rate mode : Constant\nBit rate : 384 Kbps\nChannel(s) : 6 channels\nChannel positions : Front: L C R, Side: L R, LFE\nSampling rate : 48.0 KHz\nBit depth : 16 bits\nCompression mode : Lossy\nStream size : 119 MiB (4%)\nLanguage : English\nDefault : Yes\nForced : No\n","torrent":{"xt":"urn:btih:a1ef71b1ef0e25c49653f3ec715fc8e620c8696a","amp;dn":"ex.on.the.beach.s01e06.1080i.hdtv.x264.lee","amp;tr":["udp%3A%2F%2Ftracker.openbittorrent.com%3A80","udp%3A%2F%2Fopen.demonii.com%3A1337","udp%3A%2F%2Ftracker.coppersurfer.tk%3A6969","udp%3A%2F%2Fexodus.desync.com%3A6969"],"infoHash":"a1ef71b1ef0e25c49653f3ec715fc8e620c8696a","infoHashBuffer":{"type":"Buffer","data":[161,239,113,177,239,14,37,196,150,83,243,236,113,95,200,230,32,200,105,106]},"announce":[],"urlList":[]}}